<?xml version="1.0" encoding="UTF-8" standalone="no"?>
<!-- Created with Inkscape (http://www.inkscape.org/) -->

<svg
   width="2.5999999in"
   height="1.5in"
   viewBox="0 0 66.039999 38.100001"
   version="1.1"
   id="svg5"
   inkscape:version="1.1 (1:1.1+202105261518+ce6663b3b7)"
   sodipodi:docname="Rollercoasterometer case parts 2.svg"
   xmlns:inkscape="http://www.inkscape.org/namespaces/inkscape"
   xmlns:sodipodi="http://sodipodi.sourceforge.net/DTD/sodipodi-0.dtd"
   xmlns="http://www.w3.org/2000/svg"
   xmlns:svg="http://www.w3.org/2000/svg">
  <sodipodi:namedview
     id="namedview7"
     pagecolor="#ffffff"
     bordercolor="#666666"
     borderopacity="1.0"
     inkscape:pageshadow="2"
     inkscape:pageopacity="0.0"
     inkscape:pagecheckerboard="0"
     inkscape:document-units="in"
     showgrid="true"
     units="in"
     width="2.6in"
     inkscape:zoom="2.1314103"
     inkscape:cx="266.95939"
     inkscape:cy="281.97292"
     inkscape:window-width="1920"
     inkscape:window-height="1043"
     inkscape:window-x="0"
     inkscape:window-y="0"
     inkscape:window-maximized="1"
     inkscape:current-layer="layer1"
     showguides="true"
     inkscape:guide-bbox="true"
     inkscape:snap-global="true">
    <inkscape:grid
       type="xygrid"
       id="grid824"
       units="in"
       spacingx="0.25400001"
       spacingy="0.25400001"
       empspacing="10" />
    <sodipodi:guide
       position="68.579998,15.240001"
       orientation="0,1"
       id="guide2342" />
    <sodipodi:guide
       position="66.039998,27.940001"
       orientation="0,1"
       id="guide2344" />
    <sodipodi:guide
       position="132.08,40.640001"
       orientation="1,0"
       id="guide2368" />
    <sodipodi:guide
       position="71.119998,39.370001"
       orientation="1,0"
       id="guide2370" />
    <sodipodi:guide
       position="125.73,15.240002"
       orientation="1,0"
       id="guide2372" />
    <sodipodi:guide
       position="125.73,21.590001"
       orientation="0,1"
       id="guide2374" />
  </sodipodi:namedview>
  <defs
     id="defs2" />
  <g
     inkscape:label="Layer 1"
     inkscape:groupmode="layer"
     id="layer1"
     transform="translate(0,-258.9)">
    <path
       id="TeensySlotBottom"
       style="fill:#ff0000;stroke:none;stroke-width:1.32292"
       d="m 68.58,203.02 v 10.1601 c 0,1.40716 1.132736,2.5399 2.539896,2.5399 h 5.08031 V 205.5599 H 127.00021 V 215.72 H 132.08 c 1.40716,0 2.5399,-1.13274 2.5399,-2.5399 V 203.02 H 132.08 71.119896 Z m 3.810103,7.23884 a 1.651,1.651 0 0 1 1.651062,1.65106 1.651,1.651 0 0 1 -1.651062,1.65106 1.651,1.651 0 0 1 -1.651062,-1.65106 1.651,1.651 0 0 1 1.651062,-1.65106 z m 58.419687,0 a 1.651,1.651 0 0 1 1.65106,1.65106 1.651,1.651 0 0 1 -1.65106,1.65106 1.651,1.651 0 0 1 -1.65054,-1.65106 1.651,1.651 0 0 1 1.65054,-1.65106 z"
       inkscape:label="Bottom part of case with slot all the way across for Teensy, plus USB+" />
    <path
       id="TeensySlotTop"
       style="fill:#ff0000;stroke:none;stroke-width:1.32292"
       d="m 71.119998,190.32 c -1.40716,0 -2.539896,1.13274 -2.539896,2.5399 v 5.08031 h 2.539896 60.960102 2.5399 v -5.08031 c 0,-1.40716 -1.13274,-2.5399 -2.5399,-2.5399 z m 1.270207,2.15904 a 1.651,1.651 0 0 1 1.651062,1.65106 1.651,1.651 0 0 1 -1.651062,1.65107 1.651,1.651 0 0 1 -1.651062,-1.65107 1.651,1.651 0 0 1 1.651062,-1.65106 z m 58.419685,0 a 1.651,1.651 0 0 1 1.65106,1.65106 1.651,1.651 0 0 1 -1.65106,1.65107 1.651,1.651 0 0 1 -1.65054,-1.65107 1.651,1.651 0 0 1 1.65054,-1.65106 z"
       inkscape:label="Top of slot for Teensy" />
    <path
       id="Case"
       style="fill:#ff0000;stroke:none;stroke-width:1.32292"
       d="M 2.5398966,218.26 C 1.1327366,218.26 0,219.39274 0,220.7999 v 33.0202 c 0,1.40716 1.1327366,2.5399 2.5398966,2.5399 H 63.499999 c 1.40716,0 2.539897,-1.13274 2.539897,-2.5399 v -33.0202 c 0,-1.40716 -1.132737,-2.5399 -2.539897,-2.5399 z m 1.2702068,2.15904 a 1.651,1.651 0 0 1 1.6510619,1.65106 1.651,1.651 0 0 1 -1.6510619,1.65107 1.651,1.651 0 0 1 -1.6510621,-1.65107 1.651,1.651 0 0 1 1.6510621,-1.65106 z m 58.4196896,0 a 1.651,1.651 0 0 1 1.651061,1.65106 1.651,1.651 0 0 1 -1.651061,1.65107 1.651,1.651 0 0 1 -1.650545,-1.65107 1.651,1.651 0 0 1 1.650545,-1.65106 z m -58.4196896,30.4798 a 1.651,1.651 0 0 1 1.6510619,1.65106 1.651,1.651 0 0 1 -1.6510619,1.65106 1.651,1.651 0 0 1 -1.6510621,-1.65106 1.651,1.651 0 0 1 1.6510621,-1.65106 z m 58.4196896,0 a 1.651,1.651 0 0 1 1.651061,1.65106 1.651,1.651 0 0 1 -1.651061,1.65106 1.651,1.651 0 0 1 -1.650545,-1.65106 1.651,1.651 0 0 1 1.650545,-1.65106 z"
       inkscape:label="Case with only screw holes" />
    <path
       id="TeensyUSBPlus"
       style="fill:#ff0000;stroke:none;stroke-width:1.32292"
       d="m 71.119896,218.26 c -1.40716,0 -2.539896,1.13274 -2.539896,2.5399 v 33.0202 c 0,1.40716 1.132736,2.5399 2.539896,2.5399 h 5.08031 V 246.1999 H 127.00021 V 256.36 H 132.08 c 1.40716,0 2.5399,-1.13274 2.5399,-2.5399 v -33.0202 c 0,-1.40716 -1.13274,-2.5399 -2.5399,-2.5399 z m 1.270207,2.15904 a 1.651,1.651 0 0 1 1.651062,1.65106 1.651,1.651 0 0 1 -1.651062,1.65107 1.651,1.651 0 0 1 -1.651062,-1.65107 1.651,1.651 0 0 1 1.651062,-1.65106 z m 58.419687,0 a 1.651,1.651 0 0 1 1.65106,1.65106 1.651,1.651 0 0 1 -1.65106,1.65107 1.651,1.651 0 0 1 -1.65054,-1.65107 1.651,1.651 0 0 1 1.65054,-1.65106 z m -59.689894,5.46117 H 132.08 V 243.66 H 71.119896 Z m 1.270207,25.01863 a 1.651,1.651 0 0 1 1.651062,1.65106 1.651,1.651 0 0 1 -1.651062,1.65106 1.651,1.651 0 0 1 -1.651062,-1.65106 1.651,1.651 0 0 1 1.651062,-1.65106 z m 58.419687,0 a 1.651,1.651 0 0 1 1.65106,1.65106 1.651,1.651 0 0 1 -1.65106,1.65106 1.651,1.651 0 0 1 -1.65054,-1.65106 1.651,1.651 0 0 1 1.65054,-1.65106 z"
       inkscape:label="Case with hole for Teensy and slot for USB+ ports" />
    <path
       id="TeensyHole"
       style="fill:#ff0000;stroke:none;stroke-width:5.00001"
       d="M 9.5996094 0 C 4.2812093 0 -1.1842379e-15 4.2812093 0 9.5996094 L 0 134.40039 C 0 139.71879 4.2812093 144 9.5996094 144 L 240 144 C 245.3184 144 249.59961 139.71879 249.59961 134.40039 L 249.59961 9.5996094 C 249.59961 4.2812093 245.3184 0 240 0 L 9.5996094 0 z M 14.400391 8.1601562 A 6.24 6.24 0 0 1 20.640625 14.400391 A 6.24 6.24 0 0 1 14.400391 20.640625 A 6.24 6.24 0 0 1 8.1601562 14.400391 A 6.24 6.24 0 0 1 14.400391 8.1601562 z M 235.19922 8.1601562 A 6.24 6.24 0 0 1 241.43945 14.400391 A 6.24 6.24 0 0 1 235.19922 20.640625 A 6.24 6.24 0 0 1 228.96094 14.400391 A 6.24 6.24 0 0 1 235.19922 8.1601562 z M 9.5996094 28.800781 L 240 28.800781 L 240 96 L 9.5996094 96 L 9.5996094 28.800781 z M 14.400391 123.35938 A 6.24 6.24 0 0 1 20.640625 129.59961 A 6.24 6.24 0 0 1 14.400391 135.83984 A 6.24 6.24 0 0 1 8.1601562 129.59961 A 6.24 6.24 0 0 1 14.400391 123.35938 z M 235.19922 123.35938 A 6.24 6.24 0 0 1 241.43945 129.59961 A 6.24 6.24 0 0 1 235.19922 135.83984 A 6.24 6.24 0 0 1 228.96094 129.59961 A 6.24 6.24 0 0 1 235.19922 123.35938 z "
       transform="matrix(0.26458333,0,0,0.26458333,0,258.9)"
       inkscape:label="Case with hole for Teensy, but nothing else" />
    <path
       id="JoystickHole"
       style="fill:#ff0000;stroke:none;stroke-width:5.00001"
       d="M 268.79883 0 C 263.48043 0 259.19922 4.2812093 259.19922 9.5996094 L 259.19922 134.40039 C 259.19922 139.71879 263.48043 144 268.79883 144 L 499.19922 144 C 504.51762 144 508.79883 139.71879 508.79883 134.40039 L 508.79883 9.5996094 C 508.79883 4.2812093 504.51762 0 499.19922 0 L 268.79883 0 z M 273.59961 8.1601562 A 6.24 6.24 0 0 1 279.83984 14.400391 A 6.24 6.24 0 0 1 273.59961 20.640625 A 6.24 6.24 0 0 1 267.35938 14.400391 A 6.24 6.24 0 0 1 273.59961 8.1601562 z M 494.39844 8.1601562 A 6.24 6.24 0 0 1 500.63867 14.400391 A 6.24 6.24 0 0 1 494.39844 20.640625 A 6.24 6.24 0 0 1 488.16016 14.400391 A 6.24 6.24 0 0 1 494.39844 8.1601562 z M 475.19922 45.119141 A 17.28 17.28 0 0 1 492.48047 62.400391 A 17.28 17.28 0 0 1 475.19922 79.679688 A 17.28 17.28 0 0 1 457.91992 62.400391 A 17.28 17.28 0 0 1 475.19922 45.119141 z M 273.59961 123.35938 A 6.24 6.24 0 0 1 279.83984 129.59961 A 6.24 6.24 0 0 1 273.59961 135.83984 A 6.24 6.24 0 0 1 267.35938 129.59961 A 6.24 6.24 0 0 1 273.59961 123.35938 z M 494.39844 123.35938 A 6.24 6.24 0 0 1 500.63867 129.59961 A 6.24 6.24 0 0 1 494.39844 135.83984 A 6.24 6.24 0 0 1 488.16016 129.59961 A 6.24 6.24 0 0 1 494.39844 123.35938 z "
       transform="matrix(0.26458333,0,0,0.26458333,0,258.9)"
       inkscape:label="Case with hole for joystick" />
    <rect
       style="fill:#ff0000;stroke:none;stroke-width:1.32292"
       id="SolidShoe"
       width="25.400047"
       height="20.320236"
       x="-215.72005"
       y="-0.00023620605"
       rx="2.5400047"
       ry="2.5400295"
       inkscape:transform-center-x="9.9596667"
       inkscape:transform-center-y="-12.763107"
       transform="rotate(-90)"
       inkscape:label="Shoe with no cutouts" />
    <path
       id="ShoeCutout1"
       style="fill:#ff0000;stroke:none;stroke-width:1.32292"
       d="m 22.86,213.1801 c 0,1.40716 1.13275,2.5399 2.53992,2.5399 V 205.55988 H 40.64 V 215.72 c 1.40717,0 2.54044,-1.13274 2.54044,-2.5399 v -20.32025 c 0,-1.40716 -1.13327,-2.5399 -2.54044,-2.5399 v 12.70003 H 25.39992 v -12.70003 c -1.40717,0 -2.53992,1.13274 -2.53992,2.5399 z"
       inkscape:transform-center-x="9.9595736"
       inkscape:transform-center-y="-40.70306"
       inkscape:label="Shoe with cutouts, copy 1" />
    <path
       id="ShoeCutout2"
       style="fill:#ff0000;stroke:none;stroke-width:1.32292"
       d="m 45.72,213.18022 c 0,1.40716 1.13275,2.5399 2.53992,2.5399 V 205.56 H 63.5 v 10.16012 c 1.40717,0 2.54044,-1.13274 2.54044,-2.5399 v -20.32025 c 0,-1.40716 -1.13327,-2.5399 -2.54044,-2.5399 V 203.0201 H 48.25992 v -12.70003 c -1.40717,0 -2.53992,1.13274 -2.53992,2.5399 z"
       inkscape:transform-center-x="9.9595736"
       inkscape:transform-center-y="-40.70306"
       inkscape:label="Shoe with cutouts, copy 2" />
  </g>
</svg>
